<?xml version="1.0" encoding="utf-8"?>
<!-- Generator: Adobe Illustrator 26.3.1, SVG Export Plug-In . SVG Version: 6.00 Build 0)  -->
<svg version="1.1" id="Layer_1" xmlns="http://www.w3.org/2000/svg" xmlns:xlink="http://www.w3.org/1999/xlink" x="0px" y="0px"
	 viewBox="0 0 180 180" style="enable-background:new 0 0 180 180;" xml:space="preserve">
<style type="text/css">
	.st0{fill:#FFFFFF;}
	.st1{fill:#2B393F;}
	.st2{fill:#009245;}
	.st3{fill:#00E599;}
	.st4{fill:#00AF92;}
</style>
<path class="st0" d="M90,29.9c16.1-16.1,41.8-16.6,58.5-1.5c-33.3-31.7-86-31.2-118.6,1.5c-33.2,33.2-33.2,87,0,120.2L90,90
	C73.4,73.4,73.4,46.5,90,29.9z"/>
<path class="st1" d="M151.6,31.5c15.1,16.7,14.6,42.4-1.5,58.5c-16.6,16.6-43.5,16.6-60.1,0l0,0l-60.1,60.1l0,0
	c33.2,33.2,87,33.2,120.2,0C182.8,117.4,183.3,64.8,151.6,31.5z"/>
<path class="st2" d="M150.1,29.9c0.5,0.5,1,1.1,1.5,1.6C151.1,30.9,150.6,30.4,150.1,29.9z"/>
<polygon class="st2" points="150.1,29.9 150.1,29.9 150.1,29.9 "/>
<path class="st2" d="M150.1,29.9c-0.5-0.5-1-1-1.6-1.5C149.1,28.9,149.6,29.4,150.1,29.9L150.1,29.9z"/>
<path class="st3" d="M90,29.9C73.4,46.5,73.4,73.4,90,90l60.1-60.1c-0.5-0.5-1.1-1-1.6-1.5C131.8,13.3,106.1,13.8,90,29.9z"/>
<path class="st4" d="M90,90L90,90c16.6,16.6,43.5,16.6,60.1,0c16.1-16.1,16.6-41.8,1.5-58.5c-0.5-0.5-1-1.1-1.5-1.6l0,0L90,90z"/>
</svg>
